<svg width="44" height="44" viewBox="0 0 44 44" fill="none" xmlns="http://www.w3.org/2000/svg">
<path d="M43.0086 22.0166C43.0089 21.7075 42.9483 21.4014 42.8302 21.1158C42.712 20.8302 42.5387 20.5707 42.3202 20.3522C42.1017 20.1336 41.8422 19.9603 41.5566 19.8422C41.271 19.7241 40.9649 19.6634 40.6558 19.6637L24.3528 19.6471L24.3528 3.32741C24.3528 3.01843 24.292 2.71248 24.1737 2.42702C24.0555 2.14156 23.8822 1.88218 23.6637 1.6637C23.4452 1.44522 23.1858 1.27191 22.9004 1.15367C22.6149 1.03543 22.309 0.974574 22 0.974574C21.691 0.974574 21.3851 1.03543 21.0996 1.15367C20.8142 1.27191 20.5548 1.44522 20.3363 1.6637C20.1178 1.88218 19.9445 2.14156 19.8263 2.42702C19.708 2.71248 19.6472 3.01843 19.6472 3.32741L19.6472 19.6471L3.32752 19.647C3.01855 19.647 2.71259 19.7079 2.42713 19.8261C2.14167 19.9444 1.8823 20.1177 1.66382 20.3362C1.44534 20.5547 1.27203 20.814 1.15379 21.0995C1.03555 21.385 0.974693 21.6909 0.974693 21.9999C0.974693 22.3089 1.03555 22.6148 1.15379 22.9003C1.27203 23.1857 1.44534 23.4451 1.66382 23.6636C1.8823 23.8821 2.14168 24.0554 2.42714 24.1736C2.71259 24.2919 3.01855 24.3527 3.32753 24.3527L19.6472 24.3527V40.6724C19.6472 40.9813 19.708 41.2873 19.8263 41.5727C19.9445 41.8582 20.1178 42.1176 20.3363 42.3361C20.5548 42.5545 20.8142 42.7279 21.0996 42.8461C21.3851 42.9643 21.691 43.0252 22 43.0252C22.309 43.0252 22.6149 42.9643 22.9004 42.8461C23.1858 42.7279 23.4452 42.5545 23.6637 42.3361C23.8822 42.1176 24.0555 41.8582 24.1737 41.5727C24.292 41.2873 24.3528 40.9813 24.3528 40.6724V24.3527L40.6725 24.3527C41.9407 24.3527 43.0086 23.2848 43.0086 22.0166Z" fill="white"/>
</svg>
