<svg width="24" height="25" viewBox="0 0 24 25" fill="none" xmlns="http://www.w3.org/2000/svg">
<path d="M10.95 18.5199L7.4 14.9699L8.85 13.5199L10.95 15.6199L15.15 11.4199L16.6 12.8699L10.95 18.5199ZM5 22.1699C4.45 22.1699 3.979 21.9739 3.587 21.5819C3.195 21.1899 2.99934 20.7193 3 20.1699V6.16992C3 5.61992 3.196 5.14892 3.588 4.75692C3.98 4.36492 4.45067 4.16926 5 4.16992H6V2.16992H8V4.16992H16V2.16992H18V4.16992H19C19.55 4.16992 20.021 4.36592 20.413 4.75792C20.805 5.14992 21.0007 5.62059 21 6.16992V20.1699C21 20.7199 20.804 21.1909 20.412 21.5829C20.02 21.9749 19.5493 22.1706 19 22.1699H5ZM5 20.1699H19V10.1699H5V20.1699ZM5 8.16992H19V6.16992H5V8.16992Z" fill="white"/>
</svg>
