<svg width="76" height="66" viewBox="0 0 76 66" fill="none" xmlns="http://www.w3.org/2000/svg">
<g filter="url(#filter0_dd_1208_10256)">
<path d="M28.8242 11.2917C28.8242 10.0871 29.0615 8.89436 29.5224 7.78149C29.9834 6.66863 30.659 5.65746 31.5108 4.80571C32.3625 3.95396 33.3737 3.27832 34.4866 2.81736C35.5994 2.3564 36.7922 2.11914 37.9968 2.11914C39.2013 2.11914 40.3941 2.3564 41.5069 2.81736C42.6198 3.27832 43.631 3.95396 44.4827 4.80571C45.3345 5.65746 46.0101 6.66863 46.4711 7.78149C46.932 8.89436 47.1693 10.0871 47.1693 11.2917V30.1062H28.8242V11.2917Z" stroke="#81574F" stroke-width="0.875"/>
</g>
<g filter="url(#filter1_f_1208_10256)">
<path d="M29.6654 10.3285C29.6447 9.111 29.8666 7.90156 30.3182 6.77072C30.7698 5.63988 31.442 4.61027 32.2957 3.74195C33.1494 2.87363 34.1674 2.18398 35.2904 1.71322C36.4134 1.24245 37.6189 1 38.8366 1C40.0543 1 41.2598 1.24245 42.3828 1.71322C43.5058 2.18398 44.5238 2.87363 45.3775 3.74195C46.2311 4.61027 46.9034 5.63988 47.355 6.77072C47.8066 7.90156 48.0285 9.111 48.0078 10.3285V29.1431H29.6654V10.3285Z" stroke="url(#paint0_radial_1208_10256)" stroke-width="0.175"/>
<path d="M29.6654 10.3285C29.6447 9.111 29.8666 7.90156 30.3182 6.77072C30.7698 5.63988 31.442 4.61027 32.2957 3.74195C33.1494 2.87363 34.1674 2.18398 35.2904 1.71322C36.4134 1.24245 37.6189 1 38.8366 1C40.0543 1 41.2598 1.24245 42.3828 1.71322C43.5058 2.18398 44.5238 2.87363 45.3775 3.74195C46.2311 4.61027 46.9034 5.63988 47.355 6.77072C47.8066 7.90156 48.0285 9.111 48.0078 10.3285V29.1431H29.6654V10.3285Z" stroke="url(#paint1_radial_1208_10256)" stroke-width="0.175"/>
</g>
<g filter="url(#filter2_ddd_1208_10256)">
<path d="M0.996794 23.4164C0.996794 22.0094 1.55572 20.6601 2.55062 19.6652C3.54552 18.6703 4.8949 18.1113 6.3019 18.1113H69.6953C71.1023 18.1113 72.4517 18.6703 73.4466 19.6652C74.4415 20.6601 75.0004 22.0094 75.0004 23.4164V60.3135C75.0004 61.7205 74.4415 63.0698 73.4466 64.0647C72.4517 65.0596 71.1023 65.6186 69.6953 65.6186H6.29925C4.89225 65.6186 3.54287 65.0596 2.54797 64.0647C1.55307 63.0698 0.994141 61.7205 0.994141 60.3135V23.4164H0.996794Z" fill="url(#paint2_linear_1208_10256)"/>
</g>
<g filter="url(#filter3_f_1208_10256)">
<path d="M2.2761 16.5879C2.2761 13.7497 4.56791 11.4473 7.39553 11.4473H68.6006C71.4282 11.4473 73.72 13.747 73.72 16.5853V28.0416C73.7235 30.4225 72.7813 32.7074 71.1004 34.3936C69.4196 36.0799 67.1379 37.0296 64.757 37.0338H11.2391C10.0599 37.0324 8.89246 36.7987 7.8036 36.346C6.71474 35.8932 5.72575 35.2304 4.89315 34.3953C4.06054 33.5603 3.40064 32.5693 2.95114 31.4791C2.50164 30.3889 2.27136 29.2209 2.27345 28.0416V16.5853L2.2761 16.5879Z" fill="#74394F"/>
</g>
<g filter="url(#filter4_dddd_1208_10256)">
<path d="M0.996794 15.3422C0.996794 13.9352 1.55572 12.5858 2.55062 11.5909C3.54552 10.596 4.8949 10.0371 6.3019 10.0371H69.6953C71.1023 10.0371 72.4517 10.596 73.4466 11.5909C74.4415 12.5858 75.0004 13.9352 75.0004 15.3422V27.1726C75.0004 29.6349 74.0223 31.9963 72.2812 33.7373C70.5401 35.4784 68.1787 36.4565 65.7165 36.4565H10.2781C7.81583 36.4565 5.45442 35.4784 3.71334 33.7373C1.97227 31.9963 0.994141 29.6349 0.994141 27.1726V15.3422H0.996794Z" fill="url(#paint3_linear_1208_10256)"/>
</g>
<g filter="url(#filter5_dd_1208_10256)">
<path d="M43.9674 31.3613H32.0256C30.5606 31.3613 29.373 32.5489 29.373 34.0139V41.7222C29.373 43.1872 30.5606 44.3748 32.0256 44.3748H43.9674C45.4324 44.3748 46.62 43.1872 46.62 41.7222V34.0139C46.62 32.5489 45.4324 31.3613 43.9674 31.3613Z" fill="url(#paint4_linear_1208_10256)"/>
</g>
<path d="M43.9674 31.3613H32.0256C30.5606 31.3613 29.373 32.5489 29.373 34.0139V41.7222C29.373 43.1872 30.5606 44.3748 32.0256 44.3748H43.9674C45.4324 44.3748 46.62 43.1872 46.62 41.7222V34.0139C46.62 32.5489 45.4324 31.3613 43.9674 31.3613Z" fill="url(#paint5_linear_1208_10256)"/>
<g filter="url(#filter6_d_1208_10256)">
<path d="M46.6186 36.4569H29.377V34.0139C29.377 33.3104 29.6564 32.6357 30.1539 32.1382C30.6513 31.6408 31.326 31.3613 32.0295 31.3613H43.966C44.6695 31.3613 45.3442 31.6408 45.8416 32.1382C46.3391 32.6357 46.6186 33.3104 46.6186 34.0139V36.4569Z" fill="url(#paint6_linear_1208_10256)"/>
</g>
<defs>
<filter id="filter0_dd_1208_10256" x="28.0586" y="0.916016" width="20.0957" height="29.7801" filterUnits="userSpaceOnUse" color-interpolation-filters="sRGB">
<feFlood flood-opacity="0" result="BackgroundImageFix"/>
<feColorMatrix in="SourceAlpha" type="matrix" values="0 0 0 0 0 0 0 0 0 0 0 0 0 0 0 0 0 0 127 0" result="hardAlpha"/>
<feOffset dx="0.109375" dy="-0.328125"/>
<feGaussianBlur stdDeviation="0.21875"/>
<feComposite in2="hardAlpha" operator="out"/>
<feColorMatrix type="matrix" values="0 0 0 0 0.466667 0 0 0 0 0.258824 0 0 0 0 0.337255 0 0 0 1 0"/>
<feBlend mode="normal" in2="BackgroundImageFix" result="effect1_dropShadow_1208_10256"/>
<feColorMatrix in="SourceAlpha" type="matrix" values="0 0 0 0 0 0 0 0 0 0 0 0 0 0 0 0 0 0 127 0" result="hardAlpha"/>
<feOffset dy="-0.175"/>
<feGaussianBlur stdDeviation="0.164062"/>
<feComposite in2="hardAlpha" operator="out"/>
<feColorMatrix type="matrix" values="0 0 0 0 0.376471 0 0 0 0 0.235294 0 0 0 0 0.227451 0 0 0 1 0"/>
<feBlend mode="normal" in2="effect1_dropShadow_1208_10256" result="effect2_dropShadow_1208_10256"/>
<feBlend mode="normal" in="SourceGraphic" in2="effect2_dropShadow_1208_10256" result="shape"/>
</filter>
<filter id="filter1_f_1208_10256" x="29.3574" y="0.693359" width="18.957" height="28.7559" filterUnits="userSpaceOnUse" color-interpolation-filters="sRGB">
<feFlood flood-opacity="0" result="BackgroundImageFix"/>
<feBlend mode="normal" in="SourceGraphic" in2="BackgroundImageFix" result="shape"/>
<feGaussianBlur stdDeviation="0.109375" result="effect1_foregroundBlur_1208_10256"/>
</filter>
<filter id="filter2_ddd_1208_10256" x="0.687891" y="17.8051" width="74.6184" height="47.9672" filterUnits="userSpaceOnUse" color-interpolation-filters="sRGB">
<feFlood flood-opacity="0" result="BackgroundImageFix"/>
<feColorMatrix in="SourceAlpha" type="matrix" values="0 0 0 0 0 0 0 0 0 0 0 0 0 0 0 0 0 0 127 0" result="hardAlpha"/>
<feOffset dx="0.153125" dy="-0.153125"/>
<feGaussianBlur stdDeviation="0.0765625"/>
<feComposite in2="hardAlpha" operator="out"/>
<feColorMatrix type="matrix" values="0 0 0 0 0.411765 0 0 0 0 0.227451 0 0 0 0 0.278431 0 0 0 1 0"/>
<feBlend mode="normal" in2="BackgroundImageFix" result="effect1_dropShadow_1208_10256"/>
<feColorMatrix in="SourceAlpha" type="matrix" values="0 0 0 0 0 0 0 0 0 0 0 0 0 0 0 0 0 0 127 0" result="hardAlpha"/>
<feOffset dx="-0.153125"/>
<feGaussianBlur stdDeviation="0.0765625"/>
<feComposite in2="hardAlpha" operator="out"/>
<feColorMatrix type="matrix" values="0 0 0 0 0.580392 0 0 0 0 0.407843 0 0 0 0 0.411765 0 0 0 1 0"/>
<feBlend mode="normal" in2="effect1_dropShadow_1208_10256" result="effect2_dropShadow_1208_10256"/>
<feColorMatrix in="SourceAlpha" type="matrix" values="0 0 0 0 0 0 0 0 0 0 0 0 0 0 0 0 0 0 127 0" result="hardAlpha"/>
<feOffset dy="-0.153125"/>
<feGaussianBlur stdDeviation="0.0765625"/>
<feComposite in2="hardAlpha" operator="out"/>
<feColorMatrix type="matrix" values="0 0 0 0 0.447059 0 0 0 0 0.180392 0 0 0 0 0.423529 0 0 0 1 0"/>
<feBlend mode="normal" in2="effect2_dropShadow_1208_10256" result="effect3_dropShadow_1208_10256"/>
<feBlend mode="normal" in="SourceGraphic" in2="effect3_dropShadow_1208_10256" result="shape"/>
</filter>
<filter id="filter3_f_1208_10256" x="2.05469" y="11.2285" width="71.8848" height="26.0234" filterUnits="userSpaceOnUse" color-interpolation-filters="sRGB">
<feFlood flood-opacity="0" result="BackgroundImageFix"/>
<feBlend mode="normal" in="SourceGraphic" in2="BackgroundImageFix" result="shape"/>
<feGaussianBlur stdDeviation="0.109375" result="effect1_foregroundBlur_1208_10256"/>
</filter>
<filter id="filter4_dddd_1208_10256" x="0.687891" y="9.73086" width="74.6184" height="27.0324" filterUnits="userSpaceOnUse" color-interpolation-filters="sRGB">
<feFlood flood-opacity="0" result="BackgroundImageFix"/>
<feColorMatrix in="SourceAlpha" type="matrix" values="0 0 0 0 0 0 0 0 0 0 0 0 0 0 0 0 0 0 127 0" result="hardAlpha"/>
<feOffset dy="0.153125"/>
<feGaussianBlur stdDeviation="0.0765625"/>
<feComposite in2="hardAlpha" operator="out"/>
<feColorMatrix type="matrix" values="0 0 0 0 0.513726 0 0 0 0 0.345098 0 0 0 0 0.337255 0 0 0 1 0"/>
<feBlend mode="normal" in2="BackgroundImageFix" result="effect1_dropShadow_1208_10256"/>
<feColorMatrix in="SourceAlpha" type="matrix" values="0 0 0 0 0 0 0 0 0 0 0 0 0 0 0 0 0 0 127 0" result="hardAlpha"/>
<feOffset dx="-0.153125"/>
<feGaussianBlur stdDeviation="0.0765625"/>
<feComposite in2="hardAlpha" operator="out"/>
<feColorMatrix type="matrix" values="0 0 0 0 0.572549 0 0 0 0 0.407843 0 0 0 0 0.403922 0 0 0 1 0"/>
<feBlend mode="normal" in2="effect1_dropShadow_1208_10256" result="effect2_dropShadow_1208_10256"/>
<feColorMatrix in="SourceAlpha" type="matrix" values="0 0 0 0 0 0 0 0 0 0 0 0 0 0 0 0 0 0 127 0" result="hardAlpha"/>
<feOffset dx="0.153125" dy="-0.153125"/>
<feGaussianBlur stdDeviation="0.0765625"/>
<feComposite in2="hardAlpha" operator="out"/>
<feColorMatrix type="matrix" values="0 0 0 0 0.392157 0 0 0 0 0.227451 0 0 0 0 0.301961 0 0 0 1 0"/>
<feBlend mode="normal" in2="effect2_dropShadow_1208_10256" result="effect3_dropShadow_1208_10256"/>
<feColorMatrix in="SourceAlpha" type="matrix" values="0 0 0 0 0 0 0 0 0 0 0 0 0 0 0 0 0 0 127 0" result="hardAlpha"/>
<feOffset dy="-0.153125"/>
<feGaussianBlur stdDeviation="0.0765625"/>
<feComposite in2="hardAlpha" operator="out"/>
<feColorMatrix type="matrix" values="0 0 0 0 0.415686 0 0 0 0 0.192157 0 0 0 0 0.360784 0 0 0 1 0"/>
<feBlend mode="normal" in2="effect3_dropShadow_1208_10256" result="effect4_dropShadow_1208_10256"/>
<feBlend mode="normal" in="SourceGraphic" in2="effect4_dropShadow_1208_10256" result="shape"/>
</filter>
<filter id="filter5_dd_1208_10256" x="29.1762" y="31.1645" width="17.6398" height="13.3418" filterUnits="userSpaceOnUse" color-interpolation-filters="sRGB">
<feFlood flood-opacity="0" result="BackgroundImageFix"/>
<feColorMatrix in="SourceAlpha" type="matrix" values="0 0 0 0 0 0 0 0 0 0 0 0 0 0 0 0 0 0 127 0" result="hardAlpha"/>
<feOffset dx="0.065625" dy="-0.065625"/>
<feGaussianBlur stdDeviation="0.065625"/>
<feComposite in2="hardAlpha" operator="out"/>
<feColorMatrix type="matrix" values="0 0 0 0 0.8 0 0 0 0 0.407843 0 0 0 0 0.360784 0 0 0 1 0"/>
<feBlend mode="normal" in2="BackgroundImageFix" result="effect1_dropShadow_1208_10256"/>
<feColorMatrix in="SourceAlpha" type="matrix" values="0 0 0 0 0 0 0 0 0 0 0 0 0 0 0 0 0 0 127 0" result="hardAlpha"/>
<feOffset dx="-0.065625"/>
<feGaussianBlur stdDeviation="0.065625"/>
<feComposite in2="hardAlpha" operator="out"/>
<feColorMatrix type="matrix" values="0 0 0 0 0.870588 0 0 0 0 0.596078 0 0 0 0 0.490196 0 0 0 1 0"/>
<feBlend mode="normal" in2="effect1_dropShadow_1208_10256" result="effect2_dropShadow_1208_10256"/>
<feBlend mode="normal" in="SourceGraphic" in2="effect2_dropShadow_1208_10256" result="shape"/>
</filter>
<filter id="filter6_d_1208_10256" x="29.3113" y="31.3613" width="17.3734" height="5.22695" filterUnits="userSpaceOnUse" color-interpolation-filters="sRGB">
<feFlood flood-opacity="0" result="BackgroundImageFix"/>
<feColorMatrix in="SourceAlpha" type="matrix" values="0 0 0 0 0 0 0 0 0 0 0 0 0 0 0 0 0 0 127 0" result="hardAlpha"/>
<feOffset dy="0.065625"/>
<feGaussianBlur stdDeviation="0.0328125"/>
<feComposite in2="hardAlpha" operator="out"/>
<feColorMatrix type="matrix" values="0 0 0 0 0.886275 0 0 0 0 0.639216 0 0 0 0 0.482353 0 0 0 1 0"/>
<feBlend mode="normal" in2="BackgroundImageFix" result="effect1_dropShadow_1208_10256"/>
<feBlend mode="normal" in="SourceGraphic" in2="effect1_dropShadow_1208_10256" result="shape"/>
</filter>
<radialGradient id="paint0_radial_1208_10256" cx="0" cy="0" r="1" gradientUnits="userSpaceOnUse" gradientTransform="translate(48.5556 7.35129) rotate(-146.31) scale(12.4361 8.1514)">
<stop stop-color="#98726F"/>
<stop offset="1" stop-color="#98726F" stop-opacity="0"/>
</radialGradient>
<radialGradient id="paint1_radial_1208_10256" cx="0" cy="0" r="1" gradientUnits="userSpaceOnUse" gradientTransform="translate(29.1932 11.1137) rotate(-54.8658) scale(15.5283 10.1782)">
<stop stop-color="#7D5952"/>
<stop offset="1" stop-color="#7D5952" stop-opacity="0"/>
</radialGradient>
<linearGradient id="paint2_linear_1208_10256" x1="37.9973" y1="38.5254" x2="37.9973" y2="64.8334" gradientUnits="userSpaceOnUse">
<stop stop-color="#81505E"/>
<stop offset="1" stop-color="#754759"/>
</linearGradient>
<linearGradient id="paint3_linear_1208_10256" x1="37.9973" y1="10.0371" x2="37.9973" y2="36.4565" gradientUnits="userSpaceOnUse">
<stop stop-color="#82525B"/>
<stop offset="1" stop-color="#714654"/>
</linearGradient>
<linearGradient id="paint4_linear_1208_10256" x1="37.9965" y1="36.7036" x2="37.9965" y2="44.3721" gradientUnits="userSpaceOnUse">
<stop stop-color="#D38773"/>
<stop offset="1" stop-color="#D17A55"/>
</linearGradient>
<linearGradient id="paint5_linear_1208_10256" x1="37.9965" y1="35.9556" x2="37.9965" y2="37.3243" gradientUnits="userSpaceOnUse">
<stop offset="0.333" stop-color="#843E23"/>
<stop offset="1" stop-color="#C46E44" stop-opacity="0"/>
</linearGradient>
<linearGradient id="paint6_linear_1208_10256" x1="37.9978" y1="33.9078" x2="37.9978" y2="36.4569" gradientUnits="userSpaceOnUse">
<stop stop-color="#D89577"/>
<stop offset="1" stop-color="#CB7368"/>
</linearGradient>
</defs>
</svg>
