<svg width="80" height="73" viewBox="0 0 80 73" fill="none" xmlns="http://www.w3.org/2000/svg">
<g clip-path="url(#clip0_1221_8134)">
<path d="M21.9429 42.6C19.9002 35.3703 25.1557 26.9444 34.985 19.7246C22.1983 27.2639 14.8257 36.9752 17.1213 45.099C20.4704 56.9503 43.1236 60.9329 67.7203 53.9955C68.935 53.6537 70.1323 53.2896 71.3099 52.9082C46.9759 58.7905 25.2871 54.4364 21.9429 42.6024V42.6Z" fill="#00DBA4"/>
<path d="M23.2957 42.1027C21.6595 36.3145 24.5377 29.9443 30.341 24.748C22.7007 30.0508 18.5608 37.33 20.3977 43.8315C23.0775 53.3175 37.4657 57.5626 52.5331 53.3125C53.2768 53.102 54.0106 52.8766 54.7295 52.6339C39.7761 56.0667 25.973 51.5763 23.2957 42.1027Z" fill="#F9F9FA"/>
<path d="M41.6463 65.4413C41.3464 65.5627 41.0092 65.4264 40.8927 65.1391L27.1367 31.5419L28.225 31.1035L41.981 64.6958C42.1 64.9856 41.9513 65.3199 41.6488 65.4413H41.6463Z" fill="#F9F9FA"/>
<path d="M21.894 16.731C21.894 16.731 4.92767 31.2151 1.05051 34.6206C0.733192 34.9005 0.334072 35.0986 0.242349 35.4256C-0.853372 39.2943 2.08425 40.4683 2.73375 37.6225C2.77341 37.4491 3.00148 37.3748 3.12791 37.2311C7.60748 33.8677 21.894 16.7285 21.894 16.7285V16.731Z" fill="#1A4685"/>
<path d="M0.242255 35.4288C-0.841071 39.2554 2.0197 40.4418 2.71134 37.7149L0.262087 35.3867C0.257129 35.4016 0.247213 35.414 0.244734 35.4288H0.242255Z" fill="#1A4685"/>
<path d="M21.8931 16.7305C21.8931 16.7305 4.83013 34.578 2.65357 37.0127C2.58663 37.087 2.41558 37.3 2.36352 37.3941C1.481 38.9619 2.74529 42.7513 7.16536 40.4925C8.45196 39.8362 8.66268 37.4461 8.66268 37.4461L21.8956 16.7305H21.8931Z" fill="#00DBA4"/>
<path d="M7.78529 40.4008L8.52403 38.303L2.3637 37.3965C0.792014 40.802 5.91612 42.8875 7.78529 40.4008Z" fill="#06B9B4"/>
<path d="M21.893 16.7305C21.893 16.7305 10.2888 33.4882 7.21484 38.1594C7.21484 38.1594 10.5516 45.4757 16.7689 37.8374C22.9863 30.2016 21.893 16.7305 21.893 16.7305Z" fill="#1A4685"/>
<path d="M7.21811 38.1598C7.05946 41.0675 12.7116 44.5647 16.7722 37.8378C17.1267 37.2508 17.6002 36.7456 17.9646 36.166L7.33462 37.984C7.29496 38.0434 7.22307 38.0929 7.21811 38.1598Z" fill="#1A4685"/>
<path d="M21.8946 16.7305C21.8946 16.7305 26.9641 29.2728 28.3499 32.7006C29.7357 36.1284 19.2321 40.3662 16.9465 38.0801C14.6608 35.7941 21.8946 16.7305 21.8946 16.7305Z" fill="#00DBA4"/>
<path d="M16.502 36.4186C16.5143 37.2038 16.6507 37.7833 16.9457 38.0805C19.2313 40.3666 29.7349 36.1288 28.3491 32.701C28.3367 32.6713 28.3243 32.6391 28.3119 32.6094L16.502 36.4186Z" fill="#06B9B4"/>
<path d="M21.8931 16.7311C21.8931 16.7311 44.1695 15.3788 49.3258 15.141C49.7497 15.1212 50.1736 14.9899 50.4661 15.1608C53.9442 17.1819 52.6452 20.0673 50.2009 18.4698C50.0521 18.3707 49.8389 18.4772 49.6456 18.4624C44.0852 19.1509 21.8906 16.7311 21.8906 16.7311H21.8931Z" fill="#00DBA4"/>
<path d="M50.4691 15.1604C53.91 17.1617 52.6754 20.0025 50.2832 18.5164L50.427 15.1406C50.4419 15.1481 50.4567 15.1505 50.4691 15.1604Z" fill="#06B9B4"/>
<path d="M21.8926 16.7305C21.8926 16.7305 46.576 17.7311 49.8359 17.9738C49.9376 17.9812 50.2078 18.0159 50.3094 18.0456C52.0348 18.5633 53.7577 22.1645 49.0079 23.6084C47.6271 24.027 45.8125 22.4543 45.8125 22.4543L21.8926 16.7305Z" fill="#1A4685"/>
<path d="M48.4985 23.9732L46.5078 22.9751L50.3106 18.0488C53.8085 19.4086 51.5699 24.4636 48.4985 23.9732Z" fill="#1A4685"/>
<path d="M21.8931 16.7305C21.8931 16.7305 41.8912 20.7379 47.3475 21.9639C47.3475 21.9639 50.0323 29.5403 40.2501 28.3613C30.468 27.1824 21.8906 16.7305 21.8906 16.7305H21.8931Z" fill="#00DBA4"/>
<path d="M47.3507 21.967C49.4852 23.9484 47.849 30.388 40.2533 28.3644C39.5914 28.1886 38.8973 28.1539 38.2305 27.988L47.1425 21.9199C47.2119 21.9348 47.2987 21.9199 47.3483 21.967H47.3507Z" fill="#06B9B4"/>
<path d="M21.8926 16.7305C21.8926 16.7305 26.9621 29.2728 28.3479 32.7006C29.7337 36.1284 40.2372 31.8907 40.2942 28.6585C40.3513 25.4264 21.8926 16.7305 21.8926 16.7305Z" fill="#1A4685"/>
<path d="M39.4586 27.1562C39.9941 27.7284 40.3015 28.2411 40.2941 28.6596C40.2395 31.8918 29.736 36.1295 28.3477 32.7017C28.3353 32.672 28.3229 32.6398 28.3105 32.6101L39.4562 27.1562H39.4586Z" fill="#1A4685"/>
<path d="M62.5587 33.6603C62.5587 32.4491 63.2404 31.3346 64.3262 30.7971C71.6814 27.1637 77.0336 16.0133 77.0187 2.83203H41.2442C41.2293 16.0158 46.5815 27.1637 53.9367 30.7971C55.0225 31.3346 55.7042 32.4491 55.7042 33.6603C55.7042 34.8714 55.0225 35.9859 53.9367 36.5234C46.5815 40.1568 41.2293 51.3072 41.2442 64.4885H77.0187C77.0336 51.3047 71.6814 40.1568 64.3262 36.5234C63.2404 35.9859 62.5587 34.8714 62.5587 33.6603Z" fill="#C2D5F5"/>
<path d="M62.5587 33.6603C62.5587 32.4491 63.2404 31.3346 64.3262 30.7971C71.6814 27.1637 77.0336 16.0133 77.0187 2.83203H41.2442C41.2293 16.0158 46.5815 27.1637 53.9367 30.7971C55.0225 31.3346 55.7042 32.4491 55.7042 33.6603C55.7042 34.8714 55.0225 35.9859 53.9367 36.5234C46.5815 40.1568 41.2293 51.3072 41.2442 64.4885H77.0187C77.0336 51.3047 71.6814 40.1568 64.3262 36.5234C63.2404 35.9859 62.5587 34.8714 62.5587 33.6603Z" fill="#00DBA4"/>
<path d="M45.604 19.0556C45.604 19.0556 59.1964 44.1403 71.522 19.1795C71.522 19.1795 65.6567 10.6718 57.9297 19.0556C50.2026 27.4395 45.6016 19.0556 45.6016 19.0556H45.604Z" fill="#F9F9FA"/>
<path d="M45.8359 19.5133C45.8359 19.5133 58.6326 46.2747 71.4292 19.4266C71.4292 19.4266 65.8911 11.1319 58.164 19.5133C50.437 27.8971 45.8359 19.5133 45.8359 19.5133Z" fill="#1A4685"/>
<g style="mix-blend-mode:screen" opacity="0.43">
<path d="M66.8076 7.29688H70.9822C70.9822 7.29688 73.2927 16.9785 63.9766 25.6893C63.9766 25.6893 71.0566 15.2646 66.8101 7.29688H66.8076Z" fill="#D4E3F9"/>
</g>
<path d="M63.4064 52.3474C67.6629 53.2539 71.4979 50.5294 73.1316 52.5777C73.3373 52.8353 73.5183 53.1796 74.0042 57.343C74.2 59.0272 74.3413 60.4117 74.4281 61.343C64.222 61.4519 54.0259 61.4643 43.8223 61.5733C43.9636 59.4804 43.8942 56.7411 44.7197 53.2662C45.3022 50.8118 47.5829 41.836 51.5692 41.5437C55.5901 41.249 56.4553 50.8737 63.4039 52.3523L63.4064 52.3474Z" fill="#F9F9FA"/>
<path d="M63.4064 53.0388C67.6629 53.9453 71.4979 51.2208 73.1316 53.2691C73.3373 53.5267 73.5183 53.871 74.0042 58.0344C74.2 59.7186 74.3413 61.1031 74.4281 62.0344C64.222 62.1433 54.0259 62.1557 43.8223 62.2647C43.9636 60.1718 43.8942 57.4325 44.7197 53.9576C45.3022 51.5032 47.5829 42.5274 51.5692 42.2351C55.5901 41.9404 56.4553 51.5651 63.4039 53.0437L63.4064 53.0388Z" fill="#1A4685"/>
<path d="M57.938 30.5605H60.3228V39.0013C60.3228 39.3456 60.0427 39.628 59.6956 39.628H58.5627C58.2182 39.628 57.9355 39.3481 57.9355 39.0013V30.5605H57.938Z" fill="#1A4685"/>
<path d="M58.5661 42.543H59.699C60.0436 42.543 60.3262 42.8228 60.3262 43.1696V53.515H57.9414V43.1696C57.9414 42.8253 58.2215 42.543 58.5686 42.543H58.5661Z" fill="#1A4685"/>
<path d="M59.1281 42.1566C59.7209 42.1566 60.2015 41.6764 60.2015 41.0842C60.2015 40.4919 59.7209 40.0117 59.1281 40.0117C58.5353 40.0117 58.0547 40.4919 58.0547 41.0842C58.0547 41.6764 58.5353 42.1566 59.1281 42.1566Z" fill="#1A4685"/>
<path d="M57.9396 33.5762C57.9396 33.5415 57.9347 33.5118 57.9322 33.4722C57.9198 33.1601 57.8206 32.7613 57.6893 32.4121C57.5951 32.1991 57.3571 31.8449 57.2257 31.6592C57.1711 31.5799 57.1042 31.5081 57.0298 31.4462L56.3729 30.9087L56.1895 30.8047L58.138 31.1861L57.9372 33.5762H57.9396Z" fill="#1A4685"/>
<path d="M60.3243 33.5233C60.3293 33.4887 60.4284 32.8992 60.4359 32.862C60.5003 32.5673 60.6788 32.1116 60.9118 31.8193C61.0779 31.6113 61.3655 31.3809 61.5316 31.2422C61.6059 31.1803 61.6654 31.1035 61.7472 31.0491L62.8727 30.3754L63.4206 30.041L60.0293 31.1333L60.3218 33.5233H60.3243Z" fill="#1A4685"/>
<path d="M56.1703 36.5234C57.2561 35.9859 57.9378 34.8714 57.9378 33.6603C57.9378 32.4491 57.2561 31.3346 56.1703 30.7971C48.8151 27.1637 43.986 16.0133 44.0008 2.83203H41.2442C41.2293 16.0158 46.5815 27.1637 53.9367 30.7971C55.0225 31.3346 55.7042 32.4491 55.7042 33.6603C55.7042 34.8714 55.0225 35.9859 53.9367 36.5234C46.5815 40.1568 41.2293 51.3072 41.2442 64.4885H44.0008C43.986 51.3047 48.8151 40.1568 56.1703 36.5234Z" fill="#F9F9FA"/>
<path d="M64.3273 36.5234C63.2415 35.9859 62.5598 34.8714 62.5598 33.6603C62.5598 32.4491 63.2415 31.3346 64.3273 30.7971C71.6825 27.1637 77.0347 16.0133 77.0198 2.83203H74.4119C74.4268 16.0158 69.4489 27.1637 62.0937 30.7971C61.0079 31.3346 60.3262 32.4491 60.3262 33.6603C60.3262 34.8714 61.0079 35.9859 62.0937 36.5234C69.4489 40.1568 74.4292 51.3072 74.4119 64.4885H77.0198C77.0347 51.3047 71.6825 40.1568 64.3273 36.5234Z" fill="#F9F9FA"/>
<path d="M78.2114 3.57449H40.0496C39.0605 3.57449 38.2598 2.77449 38.2598 1.78627C38.2598 0.79804 39.0605 -0.00195312 40.0496 -0.00195312H78.2114C79.2006 -0.00195312 80.0013 0.79804 80.0013 1.78627C80.0013 2.77449 79.2006 3.57449 78.2114 3.57449Z" fill="#F9F9FA"/>
<path d="M78.2114 65.6057H40.0496C39.0605 65.6057 38.2598 64.8057 38.2598 63.8175C38.2598 62.8293 39.0605 62.0293 40.0496 62.0293H78.2114C79.2006 62.0293 80.0013 62.8293 80.0013 63.8175C80.0013 64.8057 79.2006 65.6057 78.2114 65.6057Z" fill="#F9F9FA"/>
<path d="M24.7821 70.3004L25.8059 68.7054L35.7839 70.8304L34.3907 73.0001L36.0963 72.792L39.7454 67.0856L43.3598 68.475C44.3613 68.2175 43.7589 67.5834 43.7589 67.5834L40.2685 66.2658L40.8089 65.4138C41.2551 65.1661 41.7187 64.8565 42.1872 64.4775L56.2209 69.8719C56.4588 69.9636 56.7266 69.8645 56.848 69.6391C56.9918 69.3716 56.8654 69.0397 56.5828 68.9308L52.1131 67.2243L50.767 49.83L54.193 44.4728C54.193 44.4728 53.8856 43.5564 52.9808 44.0195L52.5197 44.7353L41.4732 44.3266L41.7682 43.8684C41.7682 43.8684 41.4633 42.952 40.5585 43.4127L29.5492 60.4677L23.0989 59.7321C23.0989 59.7321 22.0502 59.6602 22.789 60.4355L24.502 68.2942L23.0716 70.5085L24.7796 70.3004H24.7821ZM25.3448 66.9915C24.8267 64.8639 23.788 60.6609 23.6418 60.5296L24.8689 60.6683C25.1763 61.3866 25.9472 62.9717 27.1967 64.1234L25.3473 66.9915H25.3448ZM30.9945 60.6336L38.7538 48.5594C38.6323 48.9928 38.5133 49.4709 38.4042 49.9935C37.3779 54.9247 33.5156 59.685 32.5042 60.7797L32.4397 60.7946L30.992 60.6311L30.9945 60.6336ZM51.1463 66.8552L42.9929 63.7494C43.8283 62.9147 44.6538 61.8324 45.4 60.4157C45.4 60.4157 48.2112 55.695 49.411 51.9575L49.9291 51.1452L51.1463 66.8577V66.8552ZM37.3308 66.454C37.601 66.4441 38.0919 66.4069 38.7191 66.2484L37.4622 68.2051L37.3308 66.454ZM26.2968 67.9376L28.2527 64.9011C28.6568 65.1289 29.0956 65.2998 29.5715 65.3915C29.5715 65.3915 34.0759 66.0453 36.3838 66.3599L36.6293 69.5153L36.3144 70.0007L26.2993 67.9376H26.2968Z" fill="#F9F9FA"/>
<path d="M30.994 60.6331L31.2469 60.6603V60.6653L29.3281 60.4473V60.4424L29.5512 60.4696L40.5605 43.4147C41.4629 42.954 41.7703 43.8704 41.7703 43.8704L41.4753 44.3286C41.4753 44.3286 39.6284 44.7026 38.7533 48.5638L30.994 60.638V60.6331Z" fill="#1A4685"/>
<path d="M39.7849 65.8965L40.4145 66.0352L40.2708 66.263L43.7612 67.5807C43.7612 67.5807 44.3611 68.2123 43.3621 68.4723L39.7477 67.0829L39.3015 67.7813L38.6445 67.125L39.7874 65.8965H39.7849Z" fill="#1A4685"/>
<path d="M24.8687 60.6681L24.239 60.5938L24.0605 60.2148L36.111 61.9089C36.8026 65.6786 39.7824 65.8941 39.7824 65.8941L38.7164 66.2458C38.0892 66.4043 37.5984 66.4414 37.3282 66.4513L36.3812 66.3572C34.0733 66.0427 29.5689 65.3888 29.5689 65.3888C29.0929 65.2996 28.6541 65.1263 28.2302 64.9455L27.7592 64.7027L27.1742 64.1653C25.9446 62.969 25.1711 61.3864 24.8662 60.6681H24.8687Z" fill="#00DBA4"/>
<path d="M35.7833 70.8308L35.7659 70.8258L36.2989 69.9961L36.3138 70.0011L36.6286 69.5156V69.4884L37.4641 68.1831V68.2079L38.7184 66.2513C38.711 66.2513 38.711 66.2513 38.7036 66.2562L52.524 44.7381L52.9851 44.0223C53.89 43.5617 54.1974 44.4756 54.1974 44.4756L50.7714 49.8328L50.7813 49.9715L49.9409 51.2768L49.931 51.1455L49.4129 51.9579C49.3806 52.057 49.3459 52.161 49.3112 52.2625L40.8702 65.3869C40.8504 65.3968 40.833 65.4116 40.8132 65.4191L40.2728 66.2711L40.2926 66.2785L39.7671 67.0958L39.7472 67.0884L36.0981 72.7949L34.3926 73.0029L35.7858 70.8333L35.7833 70.8308Z" fill="#1A4685"/>
<path d="M22.7948 60.4359L24.5078 68.2947L23.0774 70.5089L24.7854 70.3008L25.8092 68.7058L35.7872 70.8309L35.2964 71.5937L36.94 71.4773L38.2539 69.4241L37.6118 67.9875L37.468 68.208L37.4209 67.564V67.5591L37.349 66.5808L37.3366 66.4594L37.002 62.0087L36.1145 61.917L36.3872 66.3653L36.6326 69.5207L36.3178 70.0061L26.3026 67.943L28.2387 64.951C27.6487 64.6489 27.3165 64.3294 27.1826 64.1709L25.3506 66.9944C24.8325 64.8668 23.7938 60.6638 23.6476 60.5325L24.3218 60.6093C24.2301 60.4285 24.1434 60.2873 24.0665 60.2204C23.6153 59.8242 22.6411 60.1139 22.6411 60.1139C22.6411 60.1139 22.6312 60.1511 22.6113 60.2031C22.656 60.2724 22.7154 60.3492 22.7997 60.4384L22.7948 60.4359Z" fill="#1A4685"/>
<path d="M23.1018 59.7324L29.5521 60.468L29.805 60.0767L31.1313 60.421L30.9949 60.634L32.4426 60.7974L32.5071 60.7826L36.2901 61.3745L42.1058 63.346L41.4216 64.1039L36.1041 62.2587L24.8817 60.7033C24.8817 60.7033 24.8693 60.681 24.8668 60.6736L23.7884 60.5522L22.7646 60.4111C22.0829 59.668 23.0993 59.7374 23.0993 59.7374L23.1018 59.7324Z" fill="#1A4685"/>
<path d="M41.0176 63.9447L41.4836 63.1348L43.0033 63.7366C43.0033 63.7366 42.9958 63.7441 42.9933 63.7465L51.1468 66.8524L49.9296 51.1398L49.6123 51.6401C49.6172 51.0581 49.6197 50.642 49.6197 50.642L50.5345 48.7324L51.0204 49.4358L50.77 49.8271L52.1161 67.2214L56.5857 68.9279C56.8683 69.0369 56.9948 69.3688 56.851 69.6363C56.732 69.8617 56.4618 69.9607 56.2238 69.8691L42.1901 64.4747L41.0176 63.9447Z" fill="#1A4685"/>
</g>
<defs>
<clipPath id="clip0_1221_8134">
<rect width="80" height="73" fill="white"/>
</clipPath>
</defs>
</svg>
