<svg width="24" height="25" viewBox="0 0 24 25" fill="none" xmlns="http://www.w3.org/2000/svg">
<path d="M7.5 3.66992C7.10218 3.66992 6.72064 3.82796 6.43934 4.10926C6.15804 4.39057 6 4.7721 6 5.16992C6 5.56775 6.15804 5.94928 6.43934 6.23058C6.72064 6.51189 7.10218 6.66992 7.5 6.66992C7.89782 6.66992 8.27936 6.51189 8.56066 6.23058C8.84196 5.94928 9 5.56775 9 5.16992C9 4.7721 8.84196 4.39057 8.56066 4.10926C8.27936 3.82796 7.89782 3.66992 7.5 3.66992ZM4.5 5.16992C4.5 4.37427 4.81607 3.61121 5.37868 3.0486C5.94129 2.48599 6.70435 2.16992 7.5 2.16992C8.29565 2.16992 9.05871 2.48599 9.62132 3.0486C10.1839 3.61121 10.5 4.37427 10.5 5.16992C10.5 5.96557 10.1839 6.72863 9.62132 7.29124C9.05871 7.85385 8.29565 8.16992 7.5 8.16992C6.70435 8.16992 5.94129 7.85385 5.37868 7.29124C4.81607 6.72863 4.5 5.96557 4.5 5.16992ZM3.768 9.16992C2.79 9.16992 2 9.96092 2 10.9379V11.2979C2 11.5049 2 12.7059 2.7 13.8729C3.248 14.7829 4.177 15.5999 5.675 15.9659C5.88017 15.4205 6.2517 14.9535 6.737 14.6309C5.134 14.4599 4.376 13.7479 3.987 13.1009C3.503 12.2949 3.5 11.4369 3.5 11.2949V10.9379C3.5 10.7899 3.62 10.6699 3.768 10.6699H8.03C8.09606 10.1411 8.26779 9.631 8.535 9.16992H3.768ZM15.465 9.16992C15.726 9.62192 15.902 10.1289 15.969 10.6699H20.232C20.38 10.6699 20.5 10.7899 20.5 10.9379V11.2949C20.5 11.4369 20.497 12.2949 20.013 13.0999C19.624 13.7479 18.866 14.4599 17.263 14.6309C17.743 14.9509 18.119 15.4169 18.325 15.9659C19.823 15.5999 20.752 14.7829 21.299 13.8729C22 12.7059 22 11.5059 22 11.2969V10.9369C22 9.96192 21.209 9.16992 20.232 9.16992H15.465ZM15 5.16992C15 4.7721 15.158 4.39057 15.4393 4.10926C15.7206 3.82796 16.1022 3.66992 16.5 3.66992C16.8978 3.66992 17.2794 3.82796 17.5607 4.10926C17.842 4.39057 18 4.7721 18 5.16992C18 5.56775 17.842 5.94928 17.5607 6.23058C17.2794 6.51189 16.8978 6.66992 16.5 6.66992C16.1022 6.66992 15.7206 6.51189 15.4393 6.23058C15.158 5.94928 15 5.56775 15 5.16992ZM16.5 2.16992C15.7044 2.16992 14.9413 2.48599 14.3787 3.0486C13.8161 3.61121 13.5 4.37427 13.5 5.16992C13.5 5.96557 13.8161 6.72863 14.3787 7.29124C14.9413 7.85385 15.7044 8.16992 16.5 8.16992C17.2956 8.16992 18.0587 7.85385 18.6213 7.29124C19.1839 6.72863 19.5 5.96557 19.5 5.16992C19.5 4.37427 19.1839 3.61121 18.6213 3.0486C18.0587 2.48599 17.2956 2.16992 16.5 2.16992ZM12 9.66992C11.803 9.66992 11.608 9.70872 11.426 9.7841C11.244 9.85948 11.0786 9.96997 10.9393 10.1093C10.8001 10.2485 10.6896 10.4139 10.6142 10.5959C10.5388 10.7779 10.5 10.9729 10.5 11.1699C10.5 11.3669 10.5388 11.562 10.6142 11.7439C10.6896 11.9259 10.8001 12.0913 10.9393 12.2306C11.0786 12.3699 11.244 12.4804 11.426 12.5557C11.608 12.6311 11.803 12.6699 12 12.6699C12.3978 12.6699 12.7794 12.5119 13.0607 12.2306C13.342 11.9493 13.5 11.5677 13.5 11.1699C13.5 10.7721 13.342 10.3906 13.0607 10.1093C12.7794 9.82796 12.3978 9.66992 12 9.66992ZM9 11.1699C9 10.3743 9.31607 9.61121 9.87868 9.0486C10.4413 8.48599 11.2044 8.16992 12 8.16992C12.7956 8.16992 13.5587 8.48599 14.1213 9.0486C14.6839 9.61121 15 10.3743 15 11.1699C15 11.9656 14.6839 12.7286 14.1213 13.2912C13.5587 13.8539 12.7956 14.1699 12 14.1699C11.2044 14.1699 10.4413 13.8539 9.87868 13.2912C9.31607 12.7286 9 11.9656 9 11.1699ZM6.5 16.9379C6.5 15.9599 7.291 15.1699 8.268 15.1699H15.732C16.709 15.1699 17.5 15.9609 17.5 16.9379V17.2979C17.5 17.5049 17.5 18.7059 16.8 19.8729C16.057 21.1069 14.613 22.1699 12 22.1699C9.387 22.1699 7.942 21.1069 7.2 19.8729C6.5 18.7059 6.5 17.5059 6.5 17.2969V16.9379ZM8.268 16.6699C8.23281 16.6699 8.19796 16.6769 8.16544 16.6903C8.13293 16.7038 8.10338 16.7235 8.0785 16.7484C8.05361 16.7733 8.03387 16.8028 8.0204 16.8354C8.00693 16.8679 8 16.9027 8 16.9379V17.2949C8 17.4369 8.003 18.2949 8.487 19.0999C8.933 19.8429 9.864 20.6699 12 20.6699C14.136 20.6699 15.067 19.8429 15.513 19.0999C15.997 18.2949 16 17.4369 16 17.2949V16.9379C16 16.8668 15.9718 16.7987 15.9215 16.7484C15.8712 16.6982 15.8031 16.6699 15.732 16.6699H8.268Z" fill="white"/>
</svg>
