<svg width="14" height="14" viewBox="0 0 14 14" fill="none" xmlns="http://www.w3.org/2000/svg">
<path d="M9.91602 4.08268H4.08268C3.92797 4.08268 3.7796 4.14414 3.6702 4.25354C3.56081 4.36293 3.49935 4.51131 3.49935 4.66602C3.49935 4.82073 3.56081 4.9691 3.6702 5.07849C3.7796 5.18789 3.92797 5.24935 4.08268 5.24935H9.91602C10.0707 5.24935 10.2191 5.18789 10.3285 5.07849C10.4379 4.9691 10.4993 4.82073 10.4993 4.66602C10.4993 4.51131 10.4379 4.36293 10.3285 4.25354C10.2191 4.14414 10.0707 4.08268 9.91602 4.08268ZM9.91602 6.41602H4.08268C3.92797 6.41602 3.7796 6.47747 3.6702 6.58687C3.56081 6.69627 3.49935 6.84464 3.49935 6.99935C3.49935 7.15406 3.56081 7.30243 3.6702 7.41183C3.7796 7.52122 3.92797 7.58268 4.08268 7.58268H9.91602C10.0707 7.58268 10.2191 7.52122 10.3285 7.41183C10.4379 7.30243 10.4993 7.15406 10.4993 6.99935C10.4993 6.84464 10.4379 6.69627 10.3285 6.58687C10.2191 6.47747 10.0707 6.41602 9.91602 6.41602ZM11.0827 1.16602H2.91602C2.45189 1.16602 2.00677 1.35039 1.67858 1.67858C1.35039 2.00677 1.16602 2.45189 1.16602 2.91602V8.74935C1.16602 9.21348 1.35039 9.6586 1.67858 9.98679C2.00677 10.315 2.45189 10.4993 2.91602 10.4993H9.67685L11.8352 12.6635C11.8897 12.7176 11.9543 12.7604 12.0254 12.7894C12.0965 12.8184 12.1726 12.8331 12.2493 12.8327C12.3259 12.8347 12.4018 12.8187 12.471 12.786C12.5775 12.7423 12.6687 12.6679 12.7331 12.5724C12.7975 12.4769 12.8321 12.3645 12.8327 12.2493V2.91602C12.8327 2.45189 12.6483 2.00677 12.3201 1.67858C11.9919 1.35039 11.5468 1.16602 11.0827 1.16602ZM11.666 10.8435L10.3302 9.50185C10.2757 9.44779 10.211 9.40501 10.14 9.37598C10.0689 9.34695 9.99279 9.33224 9.91602 9.33268H2.91602C2.76131 9.33268 2.61293 9.27122 2.50354 9.16183C2.39414 9.05243 2.33268 8.90406 2.33268 8.74935V2.91602C2.33268 2.76131 2.39414 2.61293 2.50354 2.50354C2.61293 2.39414 2.76131 2.33268 2.91602 2.33268H11.0827C11.2374 2.33268 11.3858 2.39414 11.4952 2.50354C11.6046 2.61293 11.666 2.76131 11.666 2.91602V10.8435Z" fill="#6B7280"/>
</svg>
