<svg width="20" height="20" viewBox="0 0 20 20" fill="none" xmlns="http://www.w3.org/2000/svg">
<rect y="0.496094" width="20" height="19.0064" rx="4" fill="#F9FAFB" fill-opacity="0.1"/>
<path d="M7.70444 12.7746L5.21906 10.2892C5.08514 10.1553 4.90351 10.0801 4.71411 10.0801C4.52472 10.0801 4.34308 10.1553 4.20916 10.2892C4.07524 10.4231 4 10.6048 4 10.7942C4 10.888 4.01847 10.9808 4.05436 11.0675C4.09025 11.1541 4.14285 11.2328 4.20916 11.2991L7.20306 14.293C7.4824 14.5724 7.93363 14.5724 8.21297 14.293L15.7908 6.71516C15.9248 6.58124 16 6.3996 16 6.21021C16 6.02081 15.9248 5.83917 15.7908 5.70525C15.6569 5.57133 15.4753 5.49609 15.2859 5.49609C15.0965 5.49609 14.9149 5.57133 14.7809 5.70525L7.70444 12.7746Z" fill="#00DCA5"/>
</svg>
