<svg width="32" height="20" fill="none" xmlns="http://www.w3.org/2000/svg"><path d="M.45 18.817c-.3-.3-.45-.676-.45-1.127 0-.45.15-.84.45-1.166l9.808-9.91c.164-.136.34-.245.531-.327.191-.082.395-.123.613-.123a1.681 1.681 0 0 1 1.145.45l5.394 5.406 8.5-8.436h-2.615c-.463 0-.851-.157-1.165-.471a1.58 1.58 0 0 1-.47-1.166c0-.465.158-.854.471-1.168a1.574 1.574 0 0 1 1.164-.47h6.54c.462 0 .851.157 1.165.471.314.315.47.704.469 1.167v6.551c0 .464-.157.854-.47 1.168a1.574 1.574 0 0 1-1.165.47c-.463 0-.851-.157-1.165-.472a1.58 1.58 0 0 1-.47-1.166v-2.62l-9.644 9.663c-.164.164-.341.28-.532.35-.19.068-.395.102-.613.1a1.82 1.82 0 0 1-.613-.1 1.417 1.417 0 0 1-.531-.35l-5.395-5.405-8.705 8.722c-.3.3-.667.45-1.103.45-.436 0-.817-.163-1.144-.49z" fill="#00DCA5"/></svg>