<svg width="24" height="25" viewBox="0 0 24 25" fill="none" xmlns="http://www.w3.org/2000/svg">
<path d="M2 6.16992H0V11.1699H0.01L0 20.1699C0 21.2699 0.9 22.1699 2 22.1699H20V20.1699H2V6.16992ZM7 15.1699H21L17.5 10.6699L15 13.6799L11.5 9.16992L7 15.1699ZM22 4.16992H14L12 2.16992H6C4.9 2.16992 4.01 3.06992 4.01 4.16992L4 16.1699C4 17.2699 4.9 18.1699 6 18.1699H22C23.1 18.1699 24 17.2699 24 16.1699V6.16992C24 5.06992 23.1 4.16992 22 4.16992ZM22 16.1699H6V4.16992H11.17L12.58 5.57992L13.17 6.16992H22V16.1699Z" fill="white"/>
</svg>
