<svg width="14" height="14" viewBox="0 0 14 14" fill="none" xmlns="http://www.w3.org/2000/svg">
<g clip-path="url(#clip0_1156_9271)">
<path d="M7.04 6.95917L0.5 13.4992M12.64 1.86917L11.8 4.34917C11.771 4.40653 11.7559 4.4699 11.7559 4.53417C11.7559 4.59844 11.771 4.66181 11.8 4.71917L13.37 6.81917C13.4151 6.87928 13.4424 6.95088 13.4487 7.02577C13.455 7.10066 13.4401 7.17581 13.4056 7.24261C13.3712 7.30941 13.3186 7.36516 13.2539 7.40346C13.1893 7.44176 13.1151 7.46107 13.04 7.45917H10.42C10.3558 7.46106 10.2928 7.47731 10.2357 7.50673C10.1786 7.53614 10.1288 7.57798 10.09 7.62917L8.63 9.72917C8.58718 9.79056 8.52799 9.8387 8.45917 9.86812C8.39035 9.89754 8.31466 9.90706 8.24069 9.8956C8.16673 9.88414 8.09747 9.85216 8.04077 9.8033C7.98408 9.75443 7.94224 9.69064 7.92 9.61917L7.14 7.11917C7.1222 7.05737 7.08901 7.0011 7.04354 6.95563C6.99807 6.91016 6.9418 6.87697 6.88 6.85917L4.38 6.07917C4.30853 6.05693 4.24474 6.01509 4.19588 5.9584C4.14701 5.90171 4.11503 5.83244 4.10357 5.75848C4.09211 5.68451 4.10163 5.60882 4.13105 5.54C4.16047 5.47118 4.20861 5.41199 4.27 5.36917L6.41 3.85917C6.46119 3.82036 6.50303 3.77057 6.53244 3.71346C6.56186 3.65635 6.57811 3.59338 6.58 3.52917V0.909171C6.58279 0.840355 6.60331 0.773427 6.63955 0.714866C6.6758 0.656305 6.72656 0.608095 6.7869 0.574904C6.84725 0.541714 6.91514 0.524667 6.98401 0.525414C7.05288 0.526162 7.12039 0.544678 7.18 0.579171L9.28 2.14917C9.33331 2.1862 9.39465 2.21004 9.45898 2.21873C9.5233 2.22742 9.58877 2.22072 9.65 2.19917L12.13 1.35917C12.2011 1.33417 12.2779 1.32979 12.3514 1.34651C12.4249 1.36324 12.4922 1.40039 12.5455 1.4537C12.5988 1.50701 12.6359 1.57429 12.6527 1.6478C12.6694 1.72131 12.665 1.79805 12.64 1.86917Z" stroke="white" stroke-linecap="round" stroke-linejoin="round"/>
</g>
<defs>
<clipPath id="clip0_1156_9271">
<rect width="14" height="14" fill="white"/>
</clipPath>
</defs>
</svg>
