<svg width="24" height="25" viewBox="0 0 24 25" fill="none" xmlns="http://www.w3.org/2000/svg">
<path d="M21.41 11.7499L12.41 2.74992C12.05 2.38992 11.55 2.16992 11 2.16992H4C2.9 2.16992 2 3.06992 2 4.16992V11.1699C2 11.7199 2.22 12.2199 2.59 12.5899L11.59 21.5899C11.95 21.9499 12.45 22.1699 13 22.1699C13.55 22.1699 14.05 21.9499 14.41 21.5799L21.41 14.5799C21.78 14.2199 22 13.7199 22 13.1699C22 12.6199 21.77 12.1099 21.41 11.7499ZM13 20.1799L4 11.1699V4.16992H11V4.15992L20 13.1599L13 20.1799Z" fill="white"/>
<path d="M6.5 8.16992C7.32843 8.16992 8 7.49835 8 6.66992C8 5.84149 7.32843 5.16992 6.5 5.16992C5.67157 5.16992 5 5.84149 5 6.66992C5 7.49835 5.67157 8.16992 6.5 8.16992Z" fill="white"/>
</svg>
