<svg width="24" height="25" viewBox="0 0 24 25" fill="none" xmlns="http://www.w3.org/2000/svg">
<path d="M17.75 22.1699C17.5333 22.1699 17.3543 22.0989 17.213 21.9569C17.0717 21.8149 17.0007 21.6359 17 21.4199C17 21.2033 17.071 21.0243 17.213 20.8829C17.355 20.7416 17.534 20.6706 17.75 20.6699H19.5V19.9199H18.75C18.5333 19.9199 18.3543 19.8489 18.213 19.7069C18.0717 19.5649 18.0007 19.3859 18 19.1699C18 18.9533 18.071 18.7743 18.213 18.6329C18.355 18.4916 18.534 18.4206 18.75 18.4199H19.5V17.6699H17.75C17.5333 17.6699 17.3543 17.5989 17.213 17.4569C17.0717 17.3149 17.0007 17.1359 17 16.9199C17 16.7033 17.071 16.5243 17.213 16.3829C17.355 16.2416 17.534 16.1706 17.75 16.1699H20C20.2833 16.1699 20.521 16.2659 20.713 16.4579C20.905 16.6499 21.0007 16.8873 21 17.1699V18.1699C21 18.4533 20.904 18.6909 20.712 18.8829C20.52 19.0749 20.2827 19.1706 20 19.1699C20.2833 19.1699 20.521 19.2659 20.713 19.4579C20.905 19.6499 21.0007 19.8873 21 20.1699V21.1699C21 21.4533 20.904 21.6909 20.712 21.8829C20.52 22.0749 20.2827 22.1706 20 22.1699H17.75ZM17.75 15.1699C17.5333 15.1699 17.3543 15.0989 17.213 14.9569C17.0717 14.8149 17.0007 14.6359 17 14.4199V12.4199C17 12.1366 17.096 11.8989 17.288 11.7069C17.48 11.5149 17.7173 11.4193 18 11.4199H19.5V10.6699H17.75C17.5333 10.6699 17.3543 10.5989 17.213 10.4569C17.0717 10.3149 17.0007 10.1359 17 9.91992C17 9.70326 17.071 9.52426 17.213 9.38292C17.355 9.24159 17.534 9.17059 17.75 9.16992H20C20.2833 9.16992 20.521 9.26592 20.713 9.45792C20.905 9.64992 21.0007 9.88726 21 10.1699V11.9199C21 12.2033 20.904 12.4409 20.712 12.6329C20.52 12.8249 20.2827 12.9206 20 12.9199H18.5V13.6699H20.25C20.4667 13.6699 20.6457 13.7409 20.787 13.8829C20.9283 14.0249 20.9993 14.2039 21 14.4199C21 14.6366 20.929 14.8156 20.787 14.9569C20.645 15.0983 20.466 15.1693 20.25 15.1699H17.75ZM19.25 8.16992C19.0333 8.16992 18.8543 8.09892 18.713 7.95692C18.5717 7.81492 18.5007 7.63592 18.5 7.41992V3.66992H17.75C17.5333 3.66992 17.3543 3.59892 17.213 3.45692C17.0717 3.31492 17.0007 3.13592 17 2.91992C17 2.70326 17.071 2.52426 17.213 2.38292C17.355 2.24159 17.534 2.17059 17.75 2.16992H19.25C19.4667 2.16992 19.6457 2.24092 19.787 2.38292C19.9283 2.52492 19.9993 2.70392 20 2.91992V7.41992C20 7.63659 19.929 7.81559 19.787 7.95692C19.645 8.09826 19.466 8.16926 19.25 8.16992ZM4 19.1699C3.71667 19.1699 3.479 19.0739 3.287 18.8819C3.095 18.6899 2.99934 18.4526 3 18.1699C3 17.8866 3.096 17.6489 3.288 17.4569C3.48 17.2649 3.71734 17.1693 4 17.1699H14C14.2833 17.1699 14.521 17.2659 14.713 17.4579C14.905 17.6499 15.0007 17.8873 15 18.1699C15 18.4533 14.904 18.6909 14.712 18.8829C14.52 19.0749 14.2827 19.1706 14 19.1699H4ZM4 13.1699C3.71667 13.1699 3.479 13.0739 3.287 12.8819C3.095 12.6899 2.99934 12.4526 3 12.1699C3 11.8866 3.096 11.6489 3.288 11.4569C3.48 11.2649 3.71734 11.1693 4 11.1699H14C14.2833 11.1699 14.521 11.2659 14.713 11.4579C14.905 11.6499 15.0007 11.8873 15 12.1699C15 12.4533 14.904 12.6909 14.712 12.8829C14.52 13.0749 14.2827 13.1706 14 13.1699H4ZM4 7.16992C3.71667 7.16992 3.479 7.07392 3.287 6.88192C3.095 6.68992 2.99934 6.45259 3 6.16992C3 5.88659 3.096 5.64892 3.288 5.45692C3.48 5.26492 3.71734 5.16926 4 5.16992H14C14.2833 5.16992 14.521 5.26592 14.713 5.45792C14.905 5.64992 15.0007 5.88726 15 6.16992C15 6.45326 14.904 6.69092 14.712 6.88292C14.52 7.07492 14.2827 7.17059 14 7.16992H4Z" fill="white"/>
</svg>
