<svg width="18" height="18" viewBox="0 0 18 18" fill="none" xmlns="http://www.w3.org/2000/svg">
<path d="M16.3991 1.6609C16.4821 1.84092 16.6222 1.98291 16.8073 2.06341L17.5774 2.39747C17.6286 2.41985 17.6721 2.45665 17.7027 2.50337C17.7332 2.55009 17.7495 2.60471 17.7495 2.66053C17.7495 2.71635 17.7332 2.77097 17.7027 2.81769C17.6721 2.86441 17.6286 2.90121 17.5774 2.92359L16.8136 3.25765C16.6312 3.3347 16.4854 3.47876 16.406 3.66016L15.8013 5.03379C15.6936 5.24994 15.3684 5.24994 15.26 5.03379L14.6552 3.66016C14.574 3.48007 14.4288 3.3366 14.2477 3.25765L13.4838 2.92359C13.4327 2.90121 13.3892 2.86441 13.3586 2.81769C13.3281 2.77097 13.3118 2.71635 13.3118 2.66053C13.3118 2.60471 13.3281 2.55009 13.3586 2.50337C13.3892 2.45665 13.4327 2.41985 13.4838 2.39747L14.2477 2.06341C14.43 1.98636 14.5759 1.8423 14.6552 1.6609L15.26 0.287274C15.3677 0.07112 15.6929 0.07112 15.8013 0.287274L16.3991 1.6609ZM8.8641 2.13124C8.92353 2.25627 9.02686 2.35509 9.15442 2.40888L9.70209 2.63708C9.8669 2.71124 9.8669 2.92676 9.70209 3.00093L9.15442 3.22912C9.0254 3.28067 8.92135 3.38018 8.8641 3.50676L8.43559 4.45125C8.35636 4.59894 8.12499 4.59894 8.04639 4.45125L7.61789 3.50676C7.5587 3.38155 7.45529 3.28266 7.32757 3.22912L6.77989 3.00093C6.74351 2.98641 6.71231 2.96131 6.69033 2.92888C6.66835 2.89645 6.65661 2.85818 6.65661 2.819C6.65661 2.77983 6.66835 2.74155 6.69033 2.70912C6.71231 2.67669 6.74351 2.65159 6.77989 2.63708L7.32757 2.40888C7.45658 2.35733 7.56063 2.25783 7.61789 2.13124L8.04639 1.18675C8.12563 1.03906 8.35699 1.03906 8.43559 1.18675L8.8641 2.13124ZM1.26828 15.3382L0.214136 16.3695C0.146271 16.437 0.0924159 16.5173 0.055667 16.6057C0.0189181 16.694 0 16.7888 0 16.8845C0 16.9803 0.0189181 17.075 0.055667 17.1634C0.0924159 17.2518 0.146271 17.3321 0.214136 17.3996L0.474028 17.6595C0.752937 17.946 1.21567 17.946 1.49458 17.6531L2.53605 16.6104L2.53415 16.6085L11.4104 7.73159L12.4715 6.67491C12.7473 6.39283 12.7473 5.88889 12.4715 5.61316L12.2623 5.40334C11.9809 5.12633 11.4104 5.19606 11.0935 5.513L1.26828 15.3382ZM15.182 9.18825C15.0513 9.12536 14.9477 9.01728 14.8904 8.88399L14.4562 7.85583C14.3751 7.69039 14.1443 7.69039 14.0695 7.85583L13.6353 8.88462C13.578 9.01771 13.4744 9.12556 13.3437 9.18825L12.8005 9.43674C12.6376 9.51914 12.6376 9.75368 12.8005 9.82974L13.3431 10.0782C13.4739 10.1411 13.5774 10.2492 13.6347 10.3825L14.0695 11.4106C14.1507 11.5761 14.3814 11.5761 14.4562 11.4106L14.8904 10.3825C14.9477 10.2492 15.0512 10.1411 15.182 10.0782L15.7252 9.82974C15.8882 9.74734 15.8882 9.5128 15.7252 9.43674L15.182 9.18825ZM6.33934 7.73159C6.50746 7.73159 6.66869 7.66481 6.78757 7.54593C6.90644 7.42705 6.97323 7.26582 6.97323 7.09771C6.97323 6.92959 6.90644 6.76836 6.78757 6.64949C6.66869 6.53061 6.50746 6.46383 6.33934 6.46383C6.17123 6.46383 6.01 6.53061 5.89112 6.64949C5.77225 6.76836 5.70546 6.92959 5.70546 7.09771C5.70546 7.26582 5.77225 7.42705 5.89112 7.54593C6.01 7.66481 6.17123 7.73159 6.33934 7.73159ZM17.7492 7.09771C17.7492 7.26582 17.6824 7.42705 17.5636 7.54593C17.4447 7.66481 17.2835 7.73159 17.1153 7.73159C16.9472 7.73159 16.786 7.66481 16.6671 7.54593C16.5483 7.42705 16.4815 7.26582 16.4815 7.09771C16.4815 6.92959 16.5483 6.76836 16.6671 6.64949C16.786 6.53061 16.9472 6.46383 17.1153 6.46383C17.2835 6.46383 17.4447 6.53061 17.5636 6.64949C17.6824 6.76836 17.7492 6.92959 17.7492 7.09771ZM10.7765 1.39277C10.9446 1.39277 11.1059 1.32598 11.2247 1.20711C11.3436 1.08823 11.4104 0.926999 11.4104 0.758883C11.4104 0.590766 11.3436 0.429536 11.2247 0.31066C11.1059 0.191784 10.9446 0.125 10.7765 0.125C10.6084 0.125 10.4472 0.191784 10.3283 0.31066C10.2094 0.429536 10.1426 0.590766 10.1426 0.758883C10.1426 0.926999 10.2094 1.08823 10.3283 1.20711C10.4472 1.32598 10.6084 1.39277 10.7765 1.39277ZM11.4104 12.1688C11.4104 12.3369 11.3436 12.4981 11.2247 12.617C11.1059 12.7359 10.9446 12.8027 10.7765 12.8027C10.6084 12.8027 10.4472 12.7359 10.3283 12.617C10.2094 12.4981 10.1426 12.3369 10.1426 12.1688C10.1426 12.0007 10.2094 11.8394 10.3283 11.7205C10.4472 11.6017 10.6084 11.5349 10.7765 11.5349C10.9446 11.5349 11.1059 11.6017 11.2247 11.7205C11.3436 11.8394 11.4104 12.0007 11.4104 12.1688Z" fill="white"/>
</svg>
