<svg width="24" height="25" viewBox="0 0 24 25" fill="none" xmlns="http://www.w3.org/2000/svg">
<path d="M22.9503 14.7691C22.8715 14.8282 22.7818 14.8712 22.6864 14.8956C22.591 14.9201 22.4917 14.9255 22.3942 14.9116C22.2967 14.8976 22.2029 14.8646 22.1182 14.8145C22.0334 14.7643 21.9594 14.6979 21.9003 14.6191C21.4482 14.0115 20.8598 13.5185 20.1824 13.1798C19.5051 12.8411 18.7576 12.6662 18.0003 12.6691C17.8528 12.6691 17.7086 12.6256 17.5857 12.5441C17.4628 12.4625 17.3667 12.3466 17.3093 12.2107C17.2704 12.1184 17.2504 12.0193 17.2504 11.9191C17.2504 11.819 17.2704 11.7198 17.3093 11.6275C17.3667 11.4917 17.4628 11.3757 17.5857 11.2942C17.7086 11.2126 17.8528 11.1691 18.0003 11.1691C18.4211 11.1691 18.8335 11.051 19.1906 10.8284C19.5476 10.6057 19.8351 10.2874 20.0204 9.90953C20.2056 9.53167 20.2812 9.10944 20.2385 8.6908C20.1958 8.27215 20.0365 7.87387 19.7788 7.5412C19.5211 7.20852 19.1753 6.95479 18.7806 6.80882C18.3859 6.66284 17.9582 6.63048 17.546 6.71541C17.1338 6.80034 16.7538 6.99915 16.4489 7.28926C16.1441 7.57937 15.9267 7.94916 15.8215 8.35661C15.7969 8.45203 15.7537 8.54166 15.6945 8.62038C15.6352 8.69911 15.561 8.7654 15.4761 8.81545C15.3913 8.86551 15.2974 8.89836 15.1998 8.91212C15.1022 8.92589 15.0029 8.9203 14.9075 8.89567C14.8121 8.87105 14.7224 8.82788 14.6437 8.76862C14.565 8.70935 14.4987 8.63517 14.4486 8.55029C14.3986 8.46541 14.3657 8.3715 14.352 8.27393C14.3382 8.17635 14.3438 8.07703 14.3684 7.98161C14.5144 7.41659 14.7903 6.89345 15.1741 6.45382C15.5579 6.01418 16.039 5.67018 16.5791 5.44919C17.1192 5.2282 17.7034 5.13632 18.2853 5.18086C18.8672 5.2254 19.4307 5.40513 19.9309 5.70575C20.431 6.00637 20.8542 6.41958 21.1666 6.9125C21.479 7.40543 21.672 7.96446 21.7303 8.54512C21.7887 9.12578 21.7107 9.71204 21.5026 10.2573C21.2944 10.8025 20.9619 11.2916 20.5315 11.6857C21.5514 12.1272 22.4379 12.8279 23.1031 13.7182C23.1622 13.7972 23.2051 13.887 23.2294 13.9827C23.2537 14.0783 23.2589 14.1777 23.2447 14.2753C23.2305 14.373 23.1972 14.4668 23.1467 14.5516C23.0962 14.6363 23.0294 14.7102 22.9503 14.7691ZM17.899 20.5441C17.9533 20.6295 17.9897 20.7249 18.0062 20.8247C18.0226 20.9246 18.0186 21.0267 17.9946 21.1249C17.9705 21.2231 17.9268 21.3155 17.8661 21.3964C17.8054 21.4774 17.729 21.5452 17.6414 21.5958C17.5539 21.6464 17.4569 21.6788 17.3565 21.691C17.2561 21.7032 17.1543 21.695 17.0571 21.6668C16.96 21.6386 16.8695 21.591 16.7912 21.527C16.713 21.463 16.6484 21.3837 16.6015 21.2941C16.1291 20.4941 15.4562 19.8311 14.6493 19.3706C13.8424 18.91 12.9294 18.6677 12.0003 18.6677C11.0712 18.6677 10.1582 18.91 9.35126 19.3706C8.54436 19.8311 7.87149 20.4941 7.39903 21.2941C7.35214 21.3837 7.28761 21.463 7.20932 21.527C7.13102 21.591 7.04058 21.6386 6.94343 21.6668C6.84629 21.695 6.74444 21.7032 6.64403 21.691C6.54362 21.6788 6.44671 21.6464 6.35914 21.5958C6.27156 21.5452 6.19513 21.4774 6.13444 21.3964C6.07376 21.3155 6.03007 21.2231 6.006 21.1249C5.98194 21.0267 5.978 20.9246 5.99441 20.8247C6.01083 20.7249 6.04727 20.6295 6.10153 20.5441C6.82865 19.2948 7.93734 18.3116 9.26466 17.7391C8.51778 17.1673 7.96887 16.3758 7.69509 15.4758C7.42132 14.5759 7.43644 13.6128 7.73833 12.7219C8.04022 11.831 8.6137 11.0571 9.37816 10.509C10.1426 9.96088 11.0596 9.66611 12.0003 9.66611C12.9409 9.66611 13.8579 9.96088 14.6224 10.509C15.3869 11.0571 15.9603 11.831 16.2622 12.7219C16.5641 13.6128 16.5792 14.5759 16.3055 15.4758C16.0317 16.3758 15.4828 17.1673 14.7359 17.7391C16.0632 18.3116 17.1719 19.2948 17.899 20.5441ZM12.0003 17.1691C12.5936 17.1691 13.1736 16.9932 13.667 16.6635C14.1603 16.3339 14.5449 15.8653 14.7719 15.3172C14.999 14.769 15.0584 14.1658 14.9426 13.5838C14.8269 13.0019 14.5412 12.4673 14.1216 12.0478C13.702 11.6282 13.1675 11.3425 12.5856 11.2268C12.0036 11.111 11.4004 11.1704 10.8522 11.3975C10.3041 11.6245 9.83552 12.0091 9.50587 12.5024C9.17623 12.9957 9.00028 13.5758 9.00028 14.1691C9.00028 14.9648 9.31635 15.7278 9.87896 16.2904C10.4416 16.853 11.2046 17.1691 12.0003 17.1691ZM6.75028 11.9191C6.75028 11.7202 6.67126 11.5294 6.53061 11.3888C6.38996 11.2481 6.19919 11.1691 6.00028 11.1691C5.57946 11.1691 5.16709 11.051 4.81 10.8284C4.45291 10.6057 4.16542 10.2874 3.98019 9.90953C3.79495 9.53167 3.71939 9.10944 3.76209 8.6908C3.80479 8.27215 3.96405 7.87387 4.22176 7.5412C4.47947 7.20852 4.82531 6.95479 5.22 6.80882C5.61469 6.66284 6.0424 6.63048 6.45456 6.71541C6.86672 6.80034 7.2468 6.99915 7.55163 7.28926C7.85646 7.57937 8.07383 7.94916 8.17903 8.35661C8.22876 8.54931 8.353 8.71436 8.52442 8.81545C8.69584 8.91655 8.9004 8.9454 9.09309 8.89567C9.28579 8.84595 9.45084 8.72171 9.55193 8.55029C9.65303 8.37887 9.68188 8.17431 9.63216 7.98161C9.48613 7.41659 9.21026 6.89345 8.82648 6.45382C8.4427 6.01418 7.96161 5.67018 7.42149 5.44919C6.88137 5.2282 6.29712 5.13632 5.71524 5.18086C5.13336 5.2254 4.56991 5.40513 4.06971 5.70575C3.56952 6.00637 3.14639 6.41958 2.83399 6.9125C2.52159 7.40543 2.32855 7.96446 2.27022 8.54512C2.21189 9.12578 2.28989 9.71204 2.49801 10.2573C2.70613 10.8025 3.03862 11.2916 3.46903 11.6857C2.45023 12.1277 1.5647 12.8283 0.900281 13.7182C0.841125 13.797 0.798067 13.8866 0.773567 13.9821C0.749066 14.0775 0.743603 14.1768 0.757488 14.2744C0.771373 14.3719 0.804335 14.4658 0.854492 14.5506C0.90465 14.6354 0.97102 14.7095 1.04981 14.7686C1.12861 14.8278 1.21828 14.8709 1.31371 14.8954C1.40915 14.9199 1.50847 14.9253 1.60602 14.9114C1.70356 14.8976 1.79742 14.8646 1.88222 14.8144C1.96703 14.7643 2.04112 14.6979 2.10028 14.6191C2.55233 14.0115 3.14073 13.5185 3.81812 13.1798C4.4955 12.8411 5.24295 12.6662 6.00028 12.6691C6.19919 12.6691 6.38996 12.5901 6.53061 12.4494C6.67126 12.3088 6.75028 12.118 6.75028 11.9191Z" fill="white"/>
</svg>
